<svg width="250" height="250" xmlns="http://www.w3.org/2000/svg">
 <g>
  <title>Layer 1</title>
  <path stroke="#000" id="svg_1" d="m169.079844,87.135772c0,0 7.780881,-38.995212 0,-52.204701c-7.790046,-13.209489 -10.896899,-22.008409 -28.025835,-28.307635s-10.887734,-5.043825 -23.342643,-4.39946c-12.454908,0.633256 -22.838581,8.79892 -22.838581,13.198379c0,0 -7.780881,0.633256 -10.887734,4.41057c-3.116018,3.777314 -8.303272,21.375153 -8.303272,25.785723s2.593627,33.973606 5.187254,40.261723l-3.088524,1.255401c-2.593627,36.473299 10.374508,40.883869 10.374508,40.883869c4.664863,33.973606 9.33889,19.508716 9.33889,28.307635s-4.674027,5.665971 -4.674027,5.665971s-4.142471,13.831635 -14.516979,18.86435c-10.374508,5.021606 -67.965857,32.06273 -72.649049,37.728701c-4.683192,5.677081 -4.151636,32.084949 -4.151636,32.084949l246.962775,0c0,0 0.540721,-26.407869 -4.142471,-32.084949c-4.692357,-5.677081 -62.283706,-32.707095 -72.658214,-37.728701c-10.374508,-5.032715 -14.516979,-18.86435 -14.516979,-18.86435s-4.674027,3.132949 -4.674027,-5.665971s4.674027,5.665971 9.348055,-28.307635c0,0 12.95897,-4.41057 10.374508,-40.883869l-3.116018,0z" stroke-width="1.5" fill="#2fb9d4"/>
 </g>
</svg>