<svg width="250" height="250" xmlns="http://www.w3.org/2000/svg">
 <!-- Created with Method Draw - http://github.com/duopixel/Method-Draw/ -->
 <g>
  <title>Layer 1</title>
  <path id="svg_1" d="m34.122172,304.407834c0.631851,-0.749665 1.49668,-1.384554 2.317026,-1.700972c0.878868,-0.338992 0.488945,-0.486036 -0.41768,-0.157511c-0.381428,0.138213 -0.490407,0.037855 -0.490407,-0.451613c0,-1.167832 1.670665,-1.890453 5.690375,-2.461281c3.401271,-0.483008 5.908876,-1.026181 6.948583,-1.505137l0.847233,-0.390292l0,0.67907c0,0.83968 -0.718928,2.108234 -1.514716,2.672728c-0.844189,0.598829 -3.737749,1.70418 -5.157666,1.970248c-1.27212,0.238376 -3.98896,0.308552 -5.440983,0.140542c-0.723603,-0.083725 -0.953252,-0.019755 -1.328185,0.369975c-0.24932,0.25916 -0.453311,0.627855 -0.453311,0.81932c0,0.217366 -0.240589,0.348117 -0.640549,0.348117c-0.475032,0 -0.567982,-0.086095 -0.359718,-0.333194l-0.000001,0z" stroke-opacity="null" stroke-width="1.5" stroke="#000" fill="#33ccdd"/>
  <path stroke="#000" id="svg_2" d="m3.737132,237.901242c10.362352,-26.638729 24.545562,-49.19897 37.999234,-60.442646c14.413445,-12.045807 8.018693,-17.270893 -6.849949,-5.597038c-6.255423,4.911293 -8.042681,1.345155 -8.042681,-16.047693c0,-41.49795 27.398918,-67.175674 93.322175,-87.45958c55.780853,-17.163275 96.905589,-36.464486 113.956789,-53.483808l13.894617,-13.868717l0,24.130198c0,29.837351 -11.790419,74.914362 -24.841346,94.973182c-13.844699,21.278907 -61.299103,60.556625 -84.585748,70.011146c-20.86277,8.470477 -65.418959,10.964137 -89.232152,4.994048c-11.867093,-2.975103 -15.633336,-0.701974 -21.782243,13.14676c-4.088857,9.209037 -7.434305,22.310327 -7.434305,29.113871c0,7.723908 -3.945658,12.37005 -10.504999,12.37005c-7.790527,0 -9.314908,-3.059324 -5.899382,-11.839773l-0.000011,0z" stroke-opacity="null" stroke-width="1.5" fill="#2fb9d4"/>
 </g>
</svg>